<?xml version="1.0" encoding="utf-8"?>
<!-- Generator: Adobe Illustrator 25.3.1, SVG Export Plug-In . SVG Version: 6.00 Build 0)  -->
<svg version="1.1" id="Capa_1" xmlns="http://www.w3.org/2000/svg" xmlns:xlink="http://www.w3.org/1999/xlink" x="0px" y="0px"
	 viewBox="0 0 512 512" style="enable-background:new 0 0 512 512;" xml:space="preserve">
<style type="text/css">
	.st0{fill:#FFFFFF;}
</style>
<g>
	<g>
		<path class="st0" d="M256,9.7C120.2,9.7,9.7,120.2,9.7,256S120.2,502.3,256,502.3S502.3,391.8,502.3,256S391.8,9.7,256,9.7z
			 M256,464.2c-114.8,0-208.2-93.4-208.2-208.2S141.2,47.8,256,47.8S464.2,141.2,464.2,256S370.8,464.2,256,464.2z"/>
	</g>
</g>
<g>
	<g>
		<path class="st0" d="M351.4,235.2h-76.3v-76.3c0-10.5-8.5-19.1-19.1-19.1c-10.6,0-19.1,8.5-19.1,19.1v76.3h-76.3
			c-10.6,0-19.1,8.5-19.1,19.1s8.5,19.1,19.1,19.1h76.3v76.3c0,10.5,8.5,19.1,19.1,19.1s19.1-8.5,19.1-19.1v-76.3h76.3
			c10.6,0,19.1-8.5,19.1-19.1S362,235.2,351.4,235.2z"/>
	</g>
</g>
</svg>
