<?xml version="1.0" encoding="utf-8"?>
<!-- Generator: Adobe Illustrator 25.4.1, SVG Export Plug-In . SVG Version: 6.00 Build 0)  -->
<svg version="1.1" id="Capa_1" xmlns="http://www.w3.org/2000/svg" xmlns:xlink="http://www.w3.org/1999/xlink" x="0px" y="0px"
	 viewBox="0 0 100 100" style="enable-background:new 0 0 100 100;" xml:space="preserve">
<style type="text/css">
	.st0{fill:#020203;}
</style>
<path class="st0" d="M98,50.9c-0.5,1.2-1.2,2.2-2.5,2.6c-0.5,0.2-1.1,0.2-1.7,0.2c-25.9,0-51.8,0-77.7,0c-0.3,0-0.7,0-1,0
	c0,0.1-0.1,0.1-0.1,0.2c0.2,0.2,0.5,0.4,0.7,0.6c4.1,4,8.2,8.1,12.2,12.2c2.2,2.2,1.3,5.6-1.6,6.4c-1.5,0.4-2.8-0.1-3.9-1.2
	c-4.5-4.5-9.1-9-13.6-13.5c-1.8-1.8-3.7-3.7-5.5-5.5c-1.8-1.8-1.8-4,0-5.8C9.8,40.8,16.2,34.4,22.6,28c1.1-1.1,2.5-1.6,4-1.1
	c1.5,0.5,2.4,1.6,2.6,3.1c0.2,1.3-0.4,2.4-1.3,3.3c-4,4-8.1,8-12.1,12c-0.2,0.2-0.5,0.4-0.7,0.7c0.4,0.2,0.7,0.1,1,0.1
	c25.8,0,51.5,0,77.3,0c2.3,0,3.8,0.7,4.7,2.8C98,49.7,98,50.3,98,50.9z"/>
</svg>
