<svg width="130" height="28" viewBox="0 0 130 28" fill="none" xmlns="http://www.w3.org/2000/svg">
<path d="M43.5 7V21H40.84L33.86 12.5V21H30.66V7H33.34L40.3 15.5V7H43.5ZM51.7123 21.16C50.579 21.16 49.559 20.9267 48.6523 20.46C47.759 19.98 47.059 19.32 46.5523 18.48C46.0457 17.64 45.7923 16.6867 45.7923 15.62C45.7923 14.5533 46.0457 13.6 46.5523 12.76C47.059 11.92 47.759 11.2667 48.6523 10.8C49.559 10.32 50.579 10.08 51.7123 10.08C52.8457 10.08 53.859 10.32 54.7523 10.8C55.6457 11.2667 56.3457 11.92 56.8523 12.76C57.359 13.6 57.6123 14.5533 57.6123 15.62C57.6123 16.6867 57.359 17.64 56.8523 18.48C56.3457 19.32 55.6457 19.98 54.7523 20.46C53.859 20.9267 52.8457 21.16 51.7123 21.16ZM51.7123 18.6C52.5123 18.6 53.1657 18.3333 53.6723 17.8C54.1923 17.2533 54.4523 16.5267 54.4523 15.62C54.4523 14.7133 54.1923 13.9933 53.6723 13.46C53.1657 12.9133 52.5123 12.64 51.7123 12.64C50.9123 12.64 50.2523 12.9133 49.7323 13.46C49.2123 13.9933 48.9523 14.7133 48.9523 15.62C48.9523 16.5267 49.2123 17.2533 49.7323 17.8C50.2523 18.3333 50.9123 18.6 51.7123 18.6ZM70.6578 6.16V21H67.6778V19.76C66.9045 20.6933 65.7845 21.16 64.3178 21.16C63.3045 21.16 62.3845 20.9333 61.5578 20.48C60.7445 20.0267 60.1045 19.38 59.6378 18.54C59.1711 17.7 58.9378 16.7267 58.9378 15.62C58.9378 14.5133 59.1711 13.54 59.6378 12.7C60.1045 11.86 60.7445 11.2133 61.5578 10.76C62.3845 10.3067 63.3045 10.08 64.3178 10.08C65.6911 10.08 66.7645 10.5133 67.5378 11.38V6.16H70.6578ZM64.8578 18.6C65.6445 18.6 66.2978 18.3333 66.8178 17.8C67.3378 17.2533 67.5978 16.5267 67.5978 15.62C67.5978 14.7133 67.3378 13.9933 66.8178 13.46C66.2978 12.9133 65.6445 12.64 64.8578 12.64C64.0578 12.64 63.3978 12.9133 62.8778 13.46C62.3578 13.9933 62.0978 14.7133 62.0978 15.62C62.0978 16.5267 62.3578 17.2533 62.8778 17.8C63.3978 18.3333 64.0578 18.6 64.8578 18.6ZM84.0855 15.66C84.0855 15.7 84.0655 15.98 84.0255 16.5H75.8855C76.0321 17.1667 76.3788 17.6933 76.9255 18.08C77.4721 18.4667 78.1521 18.66 78.9655 18.66C79.5255 18.66 80.0188 18.58 80.4455 18.42C80.8855 18.2467 81.2921 17.98 81.6655 17.62L83.3255 19.42C82.3121 20.58 80.8321 21.16 78.8855 21.16C77.6721 21.16 76.5988 20.9267 75.6655 20.46C74.7321 19.98 74.0121 19.32 73.5055 18.48C72.9988 17.64 72.7455 16.6867 72.7455 15.62C72.7455 14.5667 72.9921 13.62 73.4855 12.78C73.9921 11.9267 74.6788 11.2667 75.5455 10.8C76.4255 10.32 77.4055 10.08 78.4855 10.08C79.5388 10.08 80.4921 10.3067 81.3455 10.76C82.1988 11.2133 82.8655 11.8667 83.3455 12.72C83.8388 13.56 84.0855 14.54 84.0855 15.66ZM78.5055 12.44C77.7988 12.44 77.2055 12.64 76.7255 13.04C76.2455 13.44 75.9521 13.9867 75.8455 14.68H81.1455C81.0388 14 80.7455 13.46 80.2655 13.06C79.7855 12.6467 79.1988 12.44 78.5055 12.44ZM92.4427 7C93.6827 7 94.756 7.20667 95.6627 7.62C96.5827 8.03333 97.2893 8.62 97.7827 9.38C98.276 10.14 98.5227 11.04 98.5227 12.08C98.5227 13.1067 98.276 14.0067 97.7827 14.78C97.2893 15.54 96.5827 16.1267 95.6627 16.54C94.756 16.94 93.6827 17.14 92.4427 17.14H89.6227V21H86.3827V7H92.4427ZM92.2627 14.5C93.236 14.5 93.976 14.2933 94.4827 13.88C94.9893 13.4533 95.2427 12.8533 95.2427 12.08C95.2427 11.2933 94.9893 10.6933 94.4827 10.28C93.976 9.85333 93.236 9.64 92.2627 9.64H89.6227V14.5H92.2627ZM105.716 21.16C104.583 21.16 103.563 20.9267 102.656 20.46C101.763 19.98 101.063 19.32 100.556 18.48C100.05 17.64 99.7963 16.6867 99.7963 15.62C99.7963 14.5533 100.05 13.6 100.556 12.76C101.063 11.92 101.763 11.2667 102.656 10.8C103.563 10.32 104.583 10.08 105.716 10.08C106.85 10.08 107.863 10.32 108.756 10.8C109.65 11.2667 110.35 11.92 110.856 12.76C111.363 13.6 111.616 14.5533 111.616 15.62C111.616 16.6867 111.363 17.64 110.856 18.48C110.35 19.32 109.65 19.98 108.756 20.46C107.863 20.9267 106.85 21.16 105.716 21.16ZM105.716 18.6C106.516 18.6 107.17 18.3333 107.676 17.8C108.196 17.2533 108.456 16.5267 108.456 15.62C108.456 14.7133 108.196 13.9933 107.676 13.46C107.17 12.9133 106.516 12.64 105.716 12.64C104.916 12.64 104.256 12.9133 103.736 13.46C103.216 13.9933 102.956 14.7133 102.956 15.62C102.956 16.5267 103.216 17.2533 103.736 17.8C104.256 18.3333 104.916 18.6 105.716 18.6ZM120.062 10.08C121.062 10.08 121.968 10.3133 122.782 10.78C123.608 11.2333 124.255 11.88 124.722 12.72C125.188 13.5467 125.422 14.5133 125.422 15.62C125.422 16.7267 125.188 17.7 124.722 18.54C124.255 19.3667 123.608 20.0133 122.782 20.48C121.968 20.9333 121.062 21.16 120.062 21.16C118.688 21.16 117.608 20.7267 116.822 19.86V24.88H113.702V10.24H116.682V11.48C117.455 10.5467 118.582 10.08 120.062 10.08ZM119.522 18.6C120.322 18.6 120.975 18.3333 121.482 17.8C122.002 17.2533 122.262 16.5267 122.262 15.62C122.262 14.7133 122.002 13.9933 121.482 13.46C120.975 12.9133 120.322 12.64 119.522 12.64C118.722 12.64 118.062 12.9133 117.542 13.46C117.035 13.9933 116.782 14.7133 116.782 15.62C116.782 16.5267 117.035 17.2533 117.542 17.8C118.062 18.3333 118.722 18.6 119.522 18.6Z" fill="black"/>
<path fill-rule="evenodd" clip-rule="evenodd" d="M21.2911 15.6908C19.5865 15.7804 17.5647 15.3271 15.6033 14.4136C13.1351 13.2622 11.2236 11.5628 10.3963 9.98223L20.6189 3.08786C20.6996 3.03472 20.7932 3.00451 20.8897 3.00047C20.9862 2.99643 21.082 3.0187 21.1668 3.06492C21.2516 3.11114 21.3223 3.17955 21.3712 3.26283C21.4201 3.34611 21.4455 3.44113 21.4445 3.53772L21.3222 15.6908H21.2911ZM15.1155 15.4598C17.0649 16.3699 19.0867 16.8576 20.8706 16.8576C21.0211 16.8576 21.1682 16.8542 21.3118 16.8473L21.248 23.2987C21.2465 23.4067 21.2123 23.5117 21.1499 23.5998C21.0874 23.6879 20.9998 23.7551 20.8985 23.7924C20.7971 23.8298 20.6868 23.8355 20.5822 23.8089C20.4775 23.7823 20.3834 23.7246 20.3121 23.6434L14.514 17.0128C14.1736 16.6225 13.7033 16.369 13.1902 16.2992L4.46198 15.1116C4.35478 15.0973 4.25448 15.0507 4.17443 14.9779C4.09438 14.9052 4.03837 14.8098 4.01386 14.7045C3.98935 14.5991 3.99749 14.4888 4.03721 14.3882C4.07692 14.2876 4.14633 14.2015 4.23619 14.1413L9.42765 10.6338C10.4049 12.4194 12.4267 14.2068 15.1155 15.4598Z" fill="url(#paint0_linear)"/>
<path fill-rule="evenodd" clip-rule="evenodd" d="M15.1155 14.5394C17.0649 15.4495 19.0867 15.9372 20.8706 15.9372C21.0343 15.9372 21.1963 15.9338 21.3515 15.9252C23.3801 15.8287 24.8279 15.0496 25.4295 13.7603C25.9293 12.6865 25.7656 11.3473 24.9676 9.99085C24.8898 9.85874 24.7628 9.76291 24.6145 9.72445C24.541 9.7054 24.4645 9.70101 24.3893 9.71153C24.3142 9.72204 24.2418 9.74726 24.1764 9.78574C24.111 9.82422 24.0538 9.87521 24.0081 9.93579C23.9624 9.99637 23.9291 10.0654 23.91 10.1388C23.891 10.2123 23.8866 10.2888 23.8971 10.3639C23.9076 10.4391 23.9328 10.5115 23.9713 10.5769C24.3953 11.2973 24.8107 12.3504 24.3815 13.2726C23.9696 14.1568 22.8717 14.6876 21.2911 14.7704C19.5865 14.8617 17.5647 14.4067 15.6033 13.4932C11.739 11.6903 9.23116 8.53097 10.1274 6.61606C10.8697 5.03027 13.7561 4.68797 16.9239 5.64203C16.9026 5.63561 16.8813 5.62925 16.86 5.62295L18.0743 4.80402C13.9705 3.30363 10.1729 3.80565 9.08293 6.13345C7.87642 8.71022 10.5307 12.4022 15.1155 14.5394ZM21.415 6.47345L21.4009 7.87452C21.4008 7.87452 21.4008 7.87452 21.4008 7.87452C21.7951 8.16777 22.1739 8.48235 22.5356 8.81708C22.6469 8.92245 22.7955 8.97928 22.9487 8.97508C23.1019 8.97088 23.2472 8.90598 23.3525 8.79467C23.4579 8.68336 23.5147 8.53476 23.5105 8.38154C23.5063 8.22833 23.4415 8.08306 23.3301 7.97769C22.7329 7.42403 22.0922 6.92111 21.415 6.47345Z" fill="black"/>
<defs>
<linearGradient id="paint0_linear" x1="19.3172" y1="4.26984" x2="3.6435" y2="21.119" gradientUnits="userSpaceOnUse">
<stop stop-color="#FF1A52"/>
<stop offset="1" stop-color="#FF5A30"/>
</linearGradient>
</defs>
</svg>
