<?xml version="1.0" encoding="utf-8"?>
<!-- Generator: Adobe Illustrator 25.4.1, SVG Export Plug-In . SVG Version: 6.00 Build 0)  -->
<svg version="1.1" id="Capa_1" xmlns="http://www.w3.org/2000/svg" xmlns:xlink="http://www.w3.org/1999/xlink" x="0px" y="0px"
	 viewBox="0 0 100 100" style="enable-background:new 0 0 100 100;" xml:space="preserve">
<style type="text/css">
	.st0{fill:#53BD6E;}
</style>
<path class="st0" d="M5.5,90.8c0.6-2.2,1.2-4.4,1.7-6.6c1.7-6.9,3.4-13.9,5.1-20.8c0.2-0.9,0.7-1.7,1.3-2.3
	C31.2,43.5,48.8,26,66.4,8.4C67.8,7,69.7,6,71.7,5.6h1.7C76.1,6,78,7.5,79.8,9.4c3.6,3.6,7.2,7.2,10.8,10.8c1.9,1.8,3.5,3.7,3.9,6.4
	v1.7c-0.4,2.7-2,4.6-3.9,6.4C73.5,51.8,56.3,68.9,39.2,86.1c-0.8,0.8-1.8,1.4-2.9,1.6C27.5,89.8,18.8,92,10,94.1
	c-2.5,0.6-3.3,0.2-4.5-1.9L5.5,90.8z M19.7,63.5l16.8,16.8l43.6-43.5L63.3,20L19.7,63.5z M84.6,32.5l2.9-3c1.5-1.5,1.5-2.6,0-4.1
	L74.7,12.6c-0.2-0.2-0.5-0.4-0.7-0.6c-0.8-0.7-2-0.7-2.8,0c-1.2,1.2-2.4,2.4-3.5,3.6L84.6,32.5z M16.9,69.5
	c-0.8,3.3-1.6,6.6-2.4,9.9c0,0.2,0.1,0.5,0.3,0.7c1.7,1.7,3.4,3.4,5.2,5.1c0.3,0.2,0.6,0.3,0.9,0.2c1.4-0.3,2.7-0.6,4-1l5.6-1.4
	L16.9,69.5z"/>
</svg>
