<?xml version="1.0" encoding="utf-8"?>
<!-- Generator: Adobe Illustrator 25.4.1, SVG Export Plug-In . SVG Version: 6.00 Build 0)  -->
<svg version="1.1" id="Capa_1" xmlns="http://www.w3.org/2000/svg" xmlns:xlink="http://www.w3.org/1999/xlink" x="0px" y="0px"
	 viewBox="0 0 100 100" style="enable-background:new 0 0 100 100;" xml:space="preserve">
<style type="text/css">
	.st0{fill:#AF4343;}
</style>
<path class="st0" d="M71.3,28.6c-0.7,6.7-1.5,13.4-2.2,20c1,0.2,1.9,0.3,2.8,0.5c12.4,2.6,20.2,14.8,17.6,27.2
	c-2,9.4-9.7,16.6-19.3,17.9c-2.9,0.4-5.8,0.2-8.7-0.5c-0.5-0.1-0.9,0-1.3,0.1c-1.1,0.3-2.3,0.5-3.4,0.6c-9.2,0-18.4,0-27.7,0
	c-4.8,0-7.9-2.9-8.4-7.6C19.9,78,18.9,69.3,18,60.6c-1-9.1-2-18.1-3-27.1c-0.2-1.6-0.4-3.2-0.6-4.8c-0.4-0.1-0.8-0.1-1.2-0.2
	c-1.7-0.4-3-1.8-3.1-3.6c-0.2-1.9-0.2-3.7,0-5.6c0.3-2.9,2.7-5,5.6-5c4.9,0,9.8,0,14.6,0h1.1v-2.7c-0.1-3.1,2.4-5.8,5.5-5.9
	c0.1,0,0.2,0,0.4,0c3.7,0,7.4,0,11.1,0c3.1-0.1,5.8,2.4,5.8,5.6c0,0.1,0,0.2,0,0.3c0,0.9,0,1.8,0,2.8h1c4.9,0,9.8,0,14.6,0
	c2.8-0.1,5.3,2,5.6,4.8c0.2,2,0.2,3.9,0,5.9c-0.2,1.9-1.7,3.4-3.6,3.6L71.3,28.6z M68.4,28.6H17.4c0.2,2.2,0.5,4.3,0.7,6.4
	c0.9,8,1.7,16,2.6,23.9c1,9.2,2,18.5,3,27.7c0.3,3.2,2.3,4.9,5.4,4.9h27l-1-0.6c-6.9-4.6-10.6-11-10.7-19.3
	c-0.1-6.6,2.7-13,7.7-17.3c0.3-0.3,0.5-0.7,0.6-1.1c0.6-6.7,1.1-13.4,1.6-20.1c0.1-1.2,0.6-1.6,1.7-1.7h4.8c1.7,0,2.1,0.5,2,2.2
	c-0.3,4.1-0.7,8.2-1,12.3c-0.1,1.1-0.2,2.2-0.2,3.3l4.6-0.7C67,41.9,67.7,35.3,68.4,28.6L68.4,28.6z M47.2,71.5c0,11,9,20,20.1,19.9
	s20-9,19.9-20.1s-9-20-20.1-19.9c0,0-0.1,0-0.1,0C56,51.5,47.1,60.5,47.2,71.5z M13,22.8c-0.2,2.5,0.1,2.8,2.5,2.8h55.2
	c0.3,0,0.6,0,0.9,0c0.7,0,1.3-0.6,1.3-1.2c0-0.5,0-1.1,0-1.6L13,22.8z M13,19.9h59.8c0-1.6-1.3-2.8-2.8-2.8c-0.1,0-0.2,0-0.3,0H16.2
	c-0.2,0-0.4,0-0.6,0C14.1,17.2,13,18.4,13,19.9z M51.5,14.2c0-1,0-2,0-3c0-1.5-1.3-2.7-2.8-2.7c-3.9,0-7.7,0-11.6,0
	c-1.3,0-2.5,1-2.7,2.3c-0.1,1.1-0.1,2.2,0,3.4L51.5,14.2z M55.7,51.6c0.9-0.4,1.5-0.8,2.3-1.1c0.5-0.2,0.8-0.6,0.8-1.1
	c0.3-4.1,0.6-8.2,1-12.3c0.1-0.9,0.1-1.9,0.2-2.8h-2.8C56.6,40.1,56.2,45.8,55.7,51.6z"/>
<path class="st0" d="M27.2,31.4c0.9,0,1.8,0,2.8,0c0.8-0.1,1.5,0.5,1.5,1.3c0,0,0,0.1,0,0.1c0.5,6,1,12,1.4,18
	c0.5,6.5,1,12.9,1.5,19.4c0.4,5.5,0.9,11,1.3,16.5c0.1,1.3-0.4,1.9-1.7,1.9c-1.7,0-3.4,0-5.1,0c-1.2,0-1.7-0.5-1.8-1.7
	c-1-12.2-1.9-24.4-2.9-36.5c-0.4-5.6-0.9-11.3-1.4-16.9c-0.1-1.6,0.3-2.1,1.9-2.1L27.2,31.4z M32.8,85.7c-1.3-17.2-2.7-34.3-4-51.4
	h-2.9c1.3,17.2,2.7,34.3,4.1,51.4H32.8z"/>
<path class="st0" d="M47.1,55.7h-2.8V34.3h-2.8v51.4h4.2v2.8c-2,0-4,0.1-5.9,0c-0.4,0-0.8-0.7-1.1-1.2c-0.1-0.2,0-0.6,0-0.9v-53
	c0-1.8,0.4-2.1,2.1-2.1s3.2,0,4.8,0c0.8-0.1,1.5,0.5,1.6,1.3c0,0.1,0,0.2,0,0.3c0,7.5,0,14.9,0,22.4C47.2,55.4,47.2,55.5,47.1,55.7z
	"/>
<path class="st0" d="M81.4,70c0.5,0,1,0,1.4,0c0.8,0,1.4,0.6,1.4,1.4c0,0.3-0.1,0.6-0.2,0.8c-1.9,2.9-3.8,5.8-5.7,8.6
	c-0.4,0.6-1.2,0.9-1.8,0.5c-0.2-0.1-0.4-0.3-0.5-0.5c-1.9-2.8-3.8-5.7-5.7-8.6c-0.5-0.6-0.3-1.5,0.3-2c0.3-0.2,0.6-0.3,0.9-0.3
	c0.3,0,0.7,0,1.2,0c-0.2-1.2-0.7-2.2-1.5-3.1c-2.5-3-7-3.4-10.1-0.9c-3,2.5-3.4,7-0.9,10.1c1.3,1.5,3.1,2.4,5,2.5
	c1.5,0.1,1.9,0.5,1.9,2v4.7c0,1.4-0.5,1.9-1.9,1.9C56.6,86.9,49.8,79.7,50,71s7.5-15.5,16.2-15.3c7.7,0.2,14,5.9,15.2,13.5
	C81.3,69.4,81.4,69.7,81.4,70z M74.2,73l3,4.5l3-4.5c-1.3-0.4-1.5-0.7-1.6-2.1c-0.3-7.1-6.3-12.6-13.4-12.3
	c-7.1,0.3-12.6,6.3-12.3,13.4c0.2,5.2,3.5,9.7,8.4,11.5c0.9,0.3,1.9,0.5,3,0.8v-3l-0.5-0.1c-5.4-1.1-8.9-6.3-7.9-11.8
	c1.1-5.4,6.3-8.9,11.8-7.9c4.4,0.9,7.6,4.5,8,8.9C75.9,72.1,75.6,72.6,74.2,73z"/>
</svg>
