<?xml version="1.0" encoding="utf-8"?>
<!-- Generator: Adobe Illustrator 25.4.1, SVG Export Plug-In . SVG Version: 6.00 Build 0)  -->
<svg version="1.1" id="Capa_1" xmlns="http://www.w3.org/2000/svg" xmlns:xlink="http://www.w3.org/1999/xlink" x="0px" y="0px"
	 viewBox="0 0 612 612" style="enable-background:new 0 0 612 612;" xml:space="preserve">
<style type="text/css">
	.st0{fill:#FFFFFF;}
</style>
<g>
	<g id="_x31_0_10_">
		<g>
			<path class="st0" d="M571.2,367.2c-22.5,0-40.8,18.3-40.8,40.8v81.6H81.6V408c0-22.5-18.3-40.8-40.8-40.8S0,385.5,0,408v142.8
				c0,9.8,10.6,20.4,20.4,20.4h571.2c12.3,0,20.4-9.3,20.4-20.4V408C612,385.5,593.7,367.2,571.2,367.2z M224.4,204h40.8v183.6
				c0,22.5,18.3,40.8,40.8,40.8c22.5,0,40.8-18.3,40.8-40.8V204h40.8c14.4,0,27.1,1.9,35-6.1c8-8,8-21.1,0-29.1L321.8,46.6
				c-4.3-4.3-9.9-6.1-15.5-5.8c-5.6-0.3-11.2,1.5-15.5,5.8L190,168.8c-8,8-8,21.1,0,29.1C198,206,216.4,204,224.4,204z"/>
		</g>
	</g>
</g>
</svg>
